<?xml version="1.0" encoding="UTF-8" standalone="no"?>
<!-- Generator: Adobe Illustrator 19.0.0, SVG Export Plug-In . SVG Version: 6.00 Build 0)  -->

<svg
   xmlns:dc="http://purl.org/dc/elements/1.1/"
   xmlns:cc="http://creativecommons.org/ns#"
   xmlns:rdf="http://www.w3.org/1999/02/22-rdf-syntax-ns#"
   xmlns:svg="http://www.w3.org/2000/svg"
   xmlns="http://www.w3.org/2000/svg"
   xmlns:sodipodi="http://sodipodi.sourceforge.net/DTD/sodipodi-0.dtd"
   xmlns:inkscape="http://www.inkscape.org/namespaces/inkscape"
   version="1.1"
   id="Layer_1"
   x="0px"
   y="0px"
   viewBox="0 0 460.962 460.962"
   style="enable-background:new 0 0 460.962 460.962;"
   xml:space="preserve"
   sodipodi:docname="client.svg"
   inkscape:version="0.92.3 (unknown)"><metadata
   id="metadata50"><rdf:RDF><cc:Work
       rdf:about=""><dc:format>image/svg+xml</dc:format><dc:type
         rdf:resource="http://purl.org/dc/dcmitype/StillImage" /></cc:Work></rdf:RDF></metadata><defs
   id="defs48" /><sodipodi:namedview
   pagecolor="#ffffff"
   bordercolor="#666666"
   borderopacity="1"
   objecttolerance="10"
   gridtolerance="10"
   guidetolerance="10"
   inkscape:pageopacity="0"
   inkscape:pageshadow="2"
   inkscape:window-width="640"
   inkscape:window-height="480"
   id="namedview46"
   showgrid="false"
   inkscape:zoom="0.51197278"
   inkscape:cx="230.481"
   inkscape:cy="230.481"
   inkscape:window-x="0"
   inkscape:window-y="27"
   inkscape:window-maximized="0"
   inkscape:current-layer="Layer_1" />
<g
   id="XMLID_23_"
   transform="matrix(-1,0,0,1,460.96267,0)">
	<g
   id="g12">
		<g
   id="g10">
			<path
   d="m 410.092,331.521 -77.8,-67.062 c -6.358,9.587 -15.909,22.038 -29.154,34.571 -0.234,0.221 -0.459,0.441 -0.695,0.662 -10.441,9.784 -24.052,20.336 -41.045,29.384 -23.355,12.436 -53.113,22.021 -89.851,22.86 v 68.008 h -70.596 c -11.327,0 -20.509,9.182 -20.509,20.509 0,11.327 9.182,20.509 20.509,20.509 h 231.043 c 11.327,0 20.509,-9.182 20.509,-20.509 0,-11.327 -9.182,-20.509 -20.509,-20.509 h -70.596 v -81.41 l 33.739,-0.152 c 11.327,-0.051 20.468,-9.274 20.417,-20.601 -0.01,-2.091 -0.335,-4.106 -0.925,-6.004 l 64.533,55.626 c 9.908,8.541 24.864,7.433 33.406,-2.476 8.541,-9.909 7.432,-24.866 -2.476,-33.406 z"
   id="path2"
   inkscape:connector-curvature="0" />
			<circle
   cx="114.967"
   cy="43.568001"
   r="43.568001"
   id="circle4" />
			<path
   d="m 141.163,339.077 c 0.031,0 0.062,0 0.093,0 l 12.853,-0.058 -63.843,-182.702 -8.417,-18.604 c -4.67,-10.319 -16.821,-14.9 -27.14,-10.231 -10.319,4.669 -14.901,16.82 -10.231,27.139 l 78,172.401 c 3.321,7.342 10.632,12.055 18.685,12.055 z"
   id="path6"
   inkscape:connector-curvature="0" />
			<path
   d="m 105.088,132.775 c -2.31,5.439 -2.244,11.65 0.181,17.04 0.097,0.215 0.185,0.435 0.262,0.658 l 64.702,185.16 c 47.079,-0.835 87.613,-16.772 120.542,-47.401 19.603,-18.233 30.718,-36.711 34.84,-44.347 C 313.841,223.991 256.771,131.093 203.4,105.567 c -6.087,-2.911 -13.013,-4.388 -20.585,-4.388 -6.28,0 -12.914,1.088 -18.2,2.985 l -47.138,16.912 c -5.563,1.995 -10.078,6.259 -12.389,11.699 z"
   id="path8"
   inkscape:connector-curvature="0" />
		</g>
	</g>
</g>
<g
   id="g15">
</g>
<g
   id="g17">
</g>
<g
   id="g19">
</g>
<g
   id="g21">
</g>
<g
   id="g23">
</g>
<g
   id="g25">
</g>
<g
   id="g27">
</g>
<g
   id="g29">
</g>
<g
   id="g31">
</g>
<g
   id="g33">
</g>
<g
   id="g35">
</g>
<g
   id="g37">
</g>
<g
   id="g39">
</g>
<g
   id="g41">
</g>
<g
   id="g43">
</g>
</svg>