<?xml version="1.0" encoding="iso-8859-1"?>
<!-- Generator: Adobe Illustrator 19.0.0, SVG Export Plug-In . SVG Version: 6.00 Build 0)  -->
<svg version="1.1" id="Layer_1" xmlns="http://www.w3.org/2000/svg" xmlns:xlink="http://www.w3.org/1999/xlink" x="0px" y="0px"
	 viewBox="0 0 460.892 460.892" style="enable-background:new 0 0 460.892 460.892;" xml:space="preserve">
<g id="XMLID_458_">
	<g>
		<g>
			<path d="M178.722,128.221c-0.169-1.428-1.463-2.448-2.891-2.279l-7.26,0.859l-1.837-15.525c-0.173-1.462-1.499-2.507-2.961-2.335
				l-13.051,1.545c-1.462,0.173-2.508,1.499-2.335,2.961l1.837,15.525l-7.26,0.859c-1.428,0.169-2.448,1.463-2.279,2.891
				l0.682,5.767c4.287-0.478,6.462-0.72,10.749-1.198c5.685-0.634,11.153,0.54,15.838,3.056
				c7.603,4.083,13.141,11.708,14.169,20.933c1.662,14.911-9.078,28.345-23.989,30.007l-10.383,1.157l2.243,18.957
				c0.587,4.963,5.087,8.511,10.051,7.924l20.063-2.374c4.963-0.587,8.511-5.087,7.923-10.051L178.722,128.221z"/>
			<path d="M460.019,349.484l-27.284-80.728c-2.302-6.812-8.772-11.333-15.941-11.21c-41.324,0.793,18.721,0.264-80.167,1.012
				c-8.089,0.061-15-5.151-17.497-12.4l-17.8-51.933l29.666,43.919c2.557,3.785,6.826,6.051,11.389,6.051c0.035,0,0.07,0,0.104,0
				l54.911-0.414c7.591-0.057,13.698-6.257,13.641-13.848c-0.057-7.556-6.199-13.641-13.742-13.641
				c-0.035,0-0.071,0.001-0.106,0.001l-47.542,0.359l-25.542-37.813l27.162,23.482l4.363-0.033l-14.498-40.409
				c-3.822-10.653-15.557-16.191-26.21-12.369l-32.822,11.776c-5.379,1.93-9.707,6.017-11.941,11.277s-2.171,11.213,0.174,16.424
				l41.64,92.513c3.276,7.279,10.98,9.711,19.049,10.041c3.306,0.135,31.822,0.062,74.327-0.78l23.417,69.286
				c2.915,8.625,12.269,13.261,20.906,10.344C458.304,367.473,462.936,358.114,460.019,349.484z"/>
			<path d="M433.394,387.89h-49.156v-58.525l6.971-0.037c7.887-0.042,14.246-6.47,14.204-14.357
				c-0.042-7.862-6.427-14.204-14.279-14.204c-0.025,0-0.052,0-0.078,0l-81.348,0.435l-50.492-111.601
				c-3.251-7.185-11.712-10.376-18.898-7.124c-7.186,3.251-10.375,11.712-7.124,18.898l54.312,120.044
				c2.313,5.112,7.404,8.394,13.01,8.394c0.025,0,0.051,0,0.077,0l21.08-0.112v58.191h-49.156c-7.887,0-14.281,6.394-14.281,14.28
				c0,7.887,6.394,14.28,14.281,14.28h160.876c7.887,0,14.28-6.394,14.28-14.28C447.675,394.284,441.281,387.89,433.394,387.89z"/>
			<circle cx="75.494" cy="77.381" r="30.099"/>
			<path d="M94.762,257.399l4.899-59.594c-6.503,0.725-5.102,0.569-11.683,1.302c-5.346,0.596-10.366-1.712-13.477-5.638
				l-28.588-36.28l35.96,26.138c2.955,2.148,6.605,3.11,10.221,2.705l64.653-7.206c8.029-0.895,13.812-8.129,12.917-16.158
				c-0.895-8.029-8.134-13.813-16.158-12.917l-59.019,6.578l-31.374-22.805l28.476,10.512l12.344-1.376
				c-0.758-10.656-9.191-19.461-20.168-20.363l-39.15-3.218c-12.125-0.997-22.761,8.024-23.758,20.149l-6.956,112.827l9.227,60.156
				L0.634,394.252c-3.06,11.161,5.349,22.199,16.938,22.199c7.71-0.001,14.781-5.121,16.918-12.916l23.482-85.647
				c0.652-2.378,0.796-4.866,0.422-7.302l-8.524-55.573l6.829,0.561l20.939,57.09l-17.491,82.595
				c-2.009,9.484,4.052,18.8,13.536,20.808c9.468,2.007,18.797-4.039,20.808-13.536l18.537-87.536
				c0.684-3.228,0.444-6.583-0.693-9.68L94.762,257.399z"/>
			<path d="M232.25,125.824c0.892,9.222,8.305,16.709,17.518,17.691c6.193,0.66,11.873-1.554,15.907-5.458
				c8.403,5.486,19.406,6.751,29.44,2.101c12.878-5.966,19.942-20.406,16.744-34.234c-1.168-5.048-3.489-9.441-6.58-13.034
				c7.92-20.312,0.697-26.048-5.749-27.509c-2.373-0.538-4.287,1.722-3.67,4.075c1.281,4.881-6.536,9.536-13.05,12.656
				c-0.157,0.075-0.345,0.036-0.457-0.098c-1.178-1.408-8.265-8.567-21.251-2.417c-8.354,3.956-11.418,15.084-12.448,24.775
				C238.675,106.04,231.218,115.156,232.25,125.824z"/>
			<path d="M234.084,88.275c-0.643-2.124-2.885-3.321-5.007-2.681L190.33,97.317l48.98-45.931c1.618-1.517,1.7-4.059,0.182-5.677
				c-1.516-1.618-4.058-1.701-5.677-0.182l-61.506,57.677c-2.21,2.069-1.414,5.878,1.609,6.775c0.02,0.006,0.036,0.016,0.056,0.022
				l41.275,11.598c2.15,0.599,4.355-0.66,4.95-2.786c0.597-2.136-0.65-4.352-2.786-4.95l-27.989-7.881l41.978-12.7
				C233.526,92.64,234.727,90.398,234.084,88.275z"/>
		</g>
	</g>
</g>
<g>
</g>
<g>
</g>
<g>
</g>
<g>
</g>
<g>
</g>
<g>
</g>
<g>
</g>
<g>
</g>
<g>
</g>
<g>
</g>
<g>
</g>
<g>
</g>
<g>
</g>
<g>
</g>
<g>
</g>
</svg>
