<?xml version="1.0" encoding="iso-8859-1"?>
<!-- Generator: Adobe Illustrator 19.0.0, SVG Export Plug-In . SVG Version: 6.00 Build 0)  -->
<svg version="1.1" id="Layer_1" xmlns="http://www.w3.org/2000/svg" xmlns:xlink="http://www.w3.org/1999/xlink" x="0px" y="0px"
	 viewBox="0 0 455.158 455.158" style="enable-background:new 0 0 455.158 455.158;" xml:space="preserve">
<g id="XMLID_711_">
	<g>
		<g>
			<path d="M454.564,349.563c-23.544-84.397-22.043-79.159-22.485-80.306c-6.83,9.969-15.45,19.571-25.448,27.797l17.052,61.123
				c2.38,8.528,11.219,13.512,19.748,11.133C451.959,366.931,456.943,358.091,454.564,349.563z"/>
			<path d="M432.952,383.958h-47.775v-55.162l8.961-0.047c7.665-0.04,13.847-6.286,13.807-13.951
				c-0.029-5.569-3.341-10.342-8.085-12.528c-23.526,16.9-51.017,24.872-80.34,24.637c-2.334-0.019-4.404-1.501-5.174-3.705
				c-3.647-10.438-31.551-90.291-35.024-100.23c-4.054,3.491-5.608,2.685-31.316,2.696l43.159,95.393
				c2.248,4.969,7.196,8.158,12.646,8.158c0.023,0,0.048,0,0.072,0l20.49-0.107v54.845h-47.774c-7.665,0-13.879,6.214-13.879,13.879
				c0,7.665,6.214,13.879,13.879,13.879h156.354c7.665,0,13.879-6.214,13.879-13.879
				C446.831,390.173,440.617,383.958,432.952,383.958z"/>
			<path d="M285.39,194.137c-0.474,2.897-0.885,5.955-1.237,9.143l39.33,112.551c68.198-1.25,98.842-50.428,105.152-62.089
				c-7.967-13.463-46.588-76.33-82.707-93.604c-4.119-1.97-8.806-2.969-13.93-2.969c-4.25,0-8.74,0.736-12.317,2.02l-25.892,9.289
				C290.438,174.723,287.187,183.153,285.39,194.137z"/>
			<path d="M274.477,192.351c5.612-34.298,24.213-47.519,24.213-47.519v-0.001c3.655-1.724,6.816-4.126,9.38-7.001
				c6.96-7.803,9.543-19.072,5.763-29.606c-3.512-9.789-11.67-16.568-21.098-18.761c-3.77-0.877-7.742-1.019-11.703-0.326
				c0,0-41.732,1.711-59.799,66.529c-5.799,20.804-9.265,40.828-11.237,58.962l62.119-0.028
				C272.557,206.996,273.311,199.483,274.477,192.351z"/>
			<circle cx="83.342" cy="74.038" r="30.597"/>
			<path d="M143.253,191.196l-56.919-20.107L67.72,136.331l21.404,22.225l14.305,5.054l2.2-26.76
				c1.013-12.325-8.157-23.138-20.482-24.151l-39.797-3.271c-12.325-1.013-23.138,8.157-24.151,20.482l-7.072,114.692l9.379,61.151
				L0.639,389.151c-2.605,9.504,2.986,19.321,12.49,21.927c9.512,2.605,19.323-2.993,21.926-12.49l23.871-87.064
				c0.663-2.417,0.809-4.946,0.429-7.423l-8.665-56.493l6.942,0.571l21.286,58.033l-17.781,83.961
				c-2.042,9.641,4.119,19.111,13.759,21.153c9.64,2.043,19.111-4.118,21.153-13.759l18.844-88.983
				c0.695-3.281,0.451-6.692-0.704-9.841l-17.866-48.709l2.425-29.502c-8.248-2.914-29.074-10.271-37.31-13.18
				c-5.156-1.821-8.727-6.155-9.837-11.126l-10.099-45.855l21.335,39.838c1.75,3.269,4.659,5.765,8.155,7.001l62.353,22.027
				c7.744,2.735,16.238-1.325,18.974-9.067C155.055,202.426,150.996,193.931,143.253,191.196z"/>
			<path d="M190.181,368.912c-0.389,0.014-0.736,0.251-0.891,0.608c-2.683,6.195-12.54,24.796-34.087,24.527
				c-0.446-0.005-0.843,0.282-0.977,0.708c-0.134,0.426,0.026,0.89,0.396,1.14c5.338,3.626,18.235,10.223,34.092,3.221
				c7.815-3.451,10.652-13.874,2.4-29.662C190.934,369.109,190.571,368.898,190.181,368.912z"/>
			<path d="M249.584,383.594c-0.368-0.128-0.777-0.034-1.051,0.243c-4.769,4.819-20.828,18.674-40.932,10.37
				c-0.402-0.166-0.866-0.056-1.151,0.273c-0.285,0.329-0.328,0.804-0.106,1.178c3.45,5.811,13.285,18.789,30.906,15.547
				c8.553-1.574,14.963-9.151,13.006-26.768C250.213,384.05,249.951,383.722,249.584,383.594z"/>
			<path d="M240.173,371.367c0.321-0.222,0.486-0.608,0.424-0.993c-0.062-0.385-0.34-0.701-0.715-0.81
				c-6.525-1.904-26.411-9.454-28.619-31.176c-0.043-0.427-0.352-0.78-0.769-0.881c-0.418-0.101-0.853,0.073-1.086,0.434
				c-3.845,5.955-12.018,21.956,1.04,34.736C216.245,378.348,225.643,381.391,240.173,371.367z"/>
			<path d="M199.004,213.433c0.26-2.386,0.546-4.764,0.848-7.138l-4.204-3.466l5.666-6.872c0.792-5.134,1.682-10.228,2.67-15.277
				c-4.798,0.675-9.262,3.106-12.439,6.96l-5.795,7.028l-2.24-1.846c0.51-1.841,0.697-3.774,0.509-5.732
				c-0.795-8.264-7.751-14.272-15.706-14.272c-6.24,0-11.963,3.654-14.496,9.552c7.301,4.952,11.749,13.12,12.076,21.82
				c3.35,0.521,6.584-0.04,9.453-1.472l2.243,1.849l-1.848,2.242c-3.387-0.942-6.765-0.718-9.907,0.495
				c-0.55,7.206-3.897,14.006-9.526,18.841c1.901,7.032,8.237,11.647,15.207,11.648c0.001,0,0.001,0,0.001,0
				c9.298,0,16.612-7.996,15.717-17.295c-0.188-1.958-0.741-3.821-1.593-5.531l1.847-2.24l7.029,5.794
				c2.265,1.868,4.875,3.16,7.623,3.865c-0.123-0.125-0.254-0.241-0.372-0.372C199.67,219.676,198.665,216.556,199.004,213.433z
				 M168.303,193.771c-0.844,0-2.098-0.205-3.282-1.181c-3.733-3.077-1.537-9.157,3.293-9.157c2.641,0,4.883,2.003,5.139,4.674
				C173.746,191.147,171.357,193.771,168.303,193.771z M171.518,227.178c-0.845,0-2.099-0.205-3.283-1.181
				c-3.727-3.073-1.543-9.157,3.294-9.157c2.652,0,4.883,2.013,5.139,4.674C176.96,224.552,174.573,227.178,171.518,227.178z"/>
		</g>
	</g>
</g>
<g>
</g>
<g>
</g>
<g>
</g>
<g>
</g>
<g>
</g>
<g>
</g>
<g>
</g>
<g>
</g>
<g>
</g>
<g>
</g>
<g>
</g>
<g>
</g>
<g>
</g>
<g>
</g>
<g>
</g>
</svg>
